<svg xmlns="http://www.w3.org/2000/svg" viewBox="0 0 900 540" role="img" aria-label="스쿨 언데드 디펜스">
  <defs>
    <linearGradient id="wall" x1="0" x2="1" y1="0" y2="1">
      <stop offset="0" stop-color="#253b42"/>
      <stop offset=".55" stop-color="#9ebec0"/>
      <stop offset="1" stop-color="#30383c"/>
    </linearGradient>
    <linearGradient id="glass" x1="0" x2="0" y1="0" y2="1">
      <stop offset="0" stop-color="#8ed5d6" stop-opacity=".42"/>
      <stop offset="1" stop-color="#244f5b" stop-opacity=".48"/>
    </linearGradient>
    <filter id="shadow" x="-20%" y="-20%" width="140%" height="160%">
      <feDropShadow dx="0" dy="8" stdDeviation="7" flood-color="#000" flood-opacity=".35"/>
    </filter>
  </defs>
  <rect width="900" height="540" fill="#11161b"/>
  <rect x="72" y="18" width="756" height="504" rx="10" fill="url(#wall)"/>
  <g opacity=".23" stroke="#26444b" stroke-width="3">
    <path d="M72 92h756M72 166h756M72 240h756M72 314h756M72 388h756M72 462h756"/>
    <path d="M150 18v504M228 18v504M306 18v504M384 18v504M462 18v504M540 18v504M618 18v504M696 18v504M774 18v504"/>
  </g>
  <rect x="86" y="36" width="728" height="260" fill="url(#glass)" stroke="#7bd2d8" stroke-width="5" opacity=".85"/>
  <g stroke="#1a2930" stroke-width="12" opacity=".82">
    <path d="M100 112h700M100 198h700M100 284h700"/>
  </g>
  <path d="M110 377c80 18 136 8 205 22 70 14 137 49 206 32 78-19 131-61 258-39v118H110z" fill="#49342c"/>
  <g fill="#85614f" stroke="#2f221f" stroke-width="7" filter="url(#shadow)">
    <rect x="98" y="383" width="126" height="44" rx="6" transform="rotate(-8 161 405)"/>
    <rect x="225" y="391" width="151" height="52" rx="6" transform="rotate(7 300 417)"/>
    <rect x="401" y="396" width="141" height="46" rx="6" transform="rotate(-5 471 419)"/>
    <rect x="552" y="388" width="159" height="50" rx="6" transform="rotate(8 631 413)"/>
    <rect x="704" y="381" width="112" height="48" rx="6" transform="rotate(-10 760 405)"/>
  </g>
  <g opacity=".7">
    <path d="M168 368c19-20 32-19 44 2 16-35 47-21 51 4" fill="none" stroke="#5a0c10" stroke-width="18" stroke-linecap="round"/>
    <path d="M658 88c36 8 57 37 62 78" fill="none" stroke="#772227" stroke-width="14" stroke-linecap="round"/>
  </g>
  <g filter="url(#shadow)">
    <g transform="translate(446 382)">
      <path d="M0-78c29 0 56 25 56 61v40H-56v-40c0-36 27-61 56-61z" fill="#283036"/>
      <circle cx="0" cy="-100" r="28" fill="#caa77f"/>
      <path d="M-34-100c14-38 56-34 75-10-21-8-45-2-65 16z" fill="#2c201b"/>
      <path d="M-46-32l-61-30" stroke="#222" stroke-width="16" stroke-linecap="round"/>
      <path d="M46-32l62-30" stroke="#222" stroke-width="16" stroke-linecap="round"/>
      <path d="M73-72l48-26" stroke="#16181b" stroke-width="14" stroke-linecap="round"/>
      <path d="M83-80l54-29" stroke="#99a2aa" stroke-width="5" stroke-linecap="round"/>
    </g>
  </g>
  <g opacity=".9" filter="url(#shadow)">
    <g transform="translate(165 157)">
      <circle cx="0" cy="-36" r="24" fill="#a7b7a7"/>
      <path d="M-35 58l15-74h40l15 74z" fill="#f1f4ef"/>
      <path d="M-27 6h54v22h-54z" fill="#3c8f5d"/>
      <path d="M-57 6l31 34M57 6L26 40" stroke="#dfe7dc" stroke-width="16" stroke-linecap="round"/>
      <path d="M-18 58l-7 48M18 58l9 48" stroke="#27313a" stroke-width="16" stroke-linecap="round"/>
    </g>
    <g transform="translate(305 117) scale(.92)">
      <circle cx="0" cy="-36" r="24" fill="#8b967e"/>
      <path d="M-35 58l15-74h40l15 74z" fill="#e7ebe4"/>
      <path d="M-27 6h54v22h-54z" fill="#3c8f5d"/>
      <path d="M-57 6l31 34M57 6L26 40" stroke="#dfe7dc" stroke-width="16" stroke-linecap="round"/>
      <path d="M-18 58l-7 48M18 58l9 48" stroke="#27313a" stroke-width="16" stroke-linecap="round"/>
    </g>
    <g transform="translate(628 158) scale(1.05)">
      <circle cx="0" cy="-36" r="24" fill="#a1b4a1"/>
      <path d="M-35 58l15-74h40l15 74z" fill="#f1f4ef"/>
      <path d="M-27 6h54v22h-54z" fill="#3c8f5d"/>
      <path d="M-57 6l31 34M57 6L26 40" stroke="#dfe7dc" stroke-width="16" stroke-linecap="round"/>
      <path d="M-18 58l-7 48M18 58l9 48" stroke="#27313a" stroke-width="16" stroke-linecap="round"/>
    </g>
    <g transform="translate(732 113) scale(.88)">
      <circle cx="0" cy="-36" r="24" fill="#827d71"/>
      <path d="M-35 58l15-74h40l15 74z" fill="#d9ddd6"/>
      <path d="M-27 6h54v22h-54z" fill="#3c8f5d"/>
      <path d="M-57 6l31 34M57 6L26 40" stroke="#dfe7dc" stroke-width="16" stroke-linecap="round"/>
      <path d="M-18 58l-7 48M18 58l9 48" stroke="#27313a" stroke-width="16" stroke-linecap="round"/>
    </g>
  </g>
  <rect x="0" y="0" width="900" height="540" fill="#000" opacity=".2"/>
  <g transform="translate(44 42)">
    <rect x="0" y="0" width="398" height="92" rx="12" fill="#121820" opacity=".82"/>
    <text x="24" y="38" fill="#e8fbff" font-family="Pretendard, Arial, sans-serif" font-size="34" font-weight="900">스쿨 언데드 디펜스</text>
    <text x="24" y="68" fill="#ffe08a" font-family="Pretendard, Arial, sans-serif" font-size="20" font-weight="800">Phaser 4 세로형 좀비 방어전</text>
  </g>
</svg>
